Coordinates
version=1
nRows=19
nColumns=33
inDegrees=yes

Units are S.I. units (second, meters, Newtons, ...)
Angles are in degrees.

endheader
time	ground_thorax_rot_x	ground_thorax_rot_y	ground_thorax_rot_z	ground_thorax_tx	ground_thorax_ty	ground_thorax_tz	clav_prot_r	clav_elev_r	scapula_abduction_r	scapula_elevation_r	scapula_upward_rot_r	scapula_winging_r	shoulder_elv_r	plane_of_elev_r	axial_rot_r	elbow_flexion_r	pro_sup_r	wrist_flex_r	wrist_dev_r	clav_prot_l	clav_elev_l	scapula_abduction_l	scapula_elevation_l	scapula_upward_rot_l	scapula_winging_l	shoulder_elv_l	plane_of_elev_l	axial_rot_l	elbow_flexion_l	pro_sup_l	wrist_flex_l	wrist_dev_l
      8.37000000	     39.71335698	      0.01707631	      1.41664432	    -87.03166646	    883.95878665	     -6.74947162	     -5.85893064	     39.39709757	     45.00000000	     45.00000000	     45.00000000	   2404.12049420	  -2095.31719981	     19.42446778	   -179.99999979	      6.40999787	    274.96209315	     20.87729211	     12.82145309	      9.13015998	    -45.00000000	    -45.00000000	     45.00000000	    -16.57272014	   -987.94050579	  -2252.95082932	    141.25073152	    152.35878032	   -350.22101328	      6.83078612	     12.79783826	    -21.34011782
      8.38000000	     39.75406322	      0.20926951	      1.54331390	    -82.96603388	    881.02638181	     -6.62763041	     -5.72109557	     39.56241393	     45.00000000	     45.00000000	     45.00000000	   2404.10728744	  -2095.73917647	     19.24181863	   -179.99999979	      6.51284772	    271.95963027	     20.52015077	     13.08772072	      9.05097308	    -45.00000000	    -45.00000000	     45.00000000	    -16.66978702	   -988.47902396	  -2253.15308595	    141.19946459	    152.68809329	   -350.23956531	      5.99171653	     12.97412929	    -21.18912092
      8.39000000	     39.80792819	      0.30512288	      1.57424651	    -78.85688489	    877.94155226	     -6.50026553	     -5.96905311	     39.51096351	     45.00000000	     45.00000000	     45.00000000	   2403.91342508	  -2096.26994163	     19.24391303	   -179.99999979	      6.58564760	    268.91535791	     20.10623944	     13.34233735	      8.89124633	    -45.00000000	    -45.00000000	     45.00000000	    -16.21658570	   -988.89167081	  -2253.65599452	    141.09805047	    153.27543697	   -350.42088894	      5.41644156	     13.17562529	    -21.00524330
      8.40000000	     39.86602781	      0.44385311	      1.65418977	    -74.74286776	    874.72333391	     -6.36093669	     -6.05783743	     39.56515774	     45.00000000	     45.00000000	     45.00000000	   2403.84403273	  -2096.80945202	     19.13604687	   -179.99999979	      6.74230590	    266.09296013	     19.69399565	     13.56141951	      8.74698564	    -45.00000000	    -45.00000000	     45.00000000	    -16.25692240	   -989.45885568	  -2253.92496713	    141.06832216	    153.74209192	   -350.44737558	      5.13894374	     13.33391585	    -20.87766603
      8.41000000	     39.93058841	      0.59677997	      1.70282405	    -70.64306687	    871.37206902	     -6.21349125	     -6.10960429	     39.60652095	     45.00000000	     45.00000000	     45.00000000	   2403.71234205	  -2097.31616779	     19.04842020	   -179.99999979	      6.83234168	    263.48157606	     19.30601010	     13.72431613	      8.66966772	    -45.00000000	    -45.00000000	     45.00000000	    -16.22227619	   -989.98130924	  -2254.31603086	    140.96329433	    154.34453010	   -350.53651798	      5.05822589	     13.48329495	    -20.74453479
      8.42000000	     40.00256240	      0.69399549	      1.74152948	    -66.58547524	    867.89000196	     -6.05881080	     -6.31784984	     39.58098865	     45.00000000	     45.00000000	     45.00000000	   2403.54190891	  -2097.89004316	     18.99208684	   -179.99999979	      6.92422881	    261.03367687	     18.90047463	     13.84717108	      8.53952212	    -45.00000000	    -45.00000000	     45.00000000	    -16.11605074	   -990.46405779	  -2254.79635459	    140.86497592	    155.02223716	   -350.64986144	      5.11121998	     13.64650956	    -20.60329938
      8.43000000	     40.02585023	      0.80192531	      1.72488858	    -62.59043069	    864.29934718	     -5.89269468	     -6.56179521	     39.63740425	     45.00000000	     45.00000000	     45.00000000	   2403.36308864	  -2098.46986257	     18.87733052	   -179.99999979	      7.01031706	    258.87941837	     18.59842090	     13.92998843	      8.41062166	    -45.00000000	    -45.00000000	     45.00000000	    -15.96888926	   -990.91949543	  -2255.21607384	    140.66823638	    155.62028950	   -350.84858058	      5.19161655	     13.81319352	    -20.43929004
      8.44000000	     40.07223440	      1.13476451	      1.95744135	    -58.66726795	    860.61641212	     -5.71149803	     -6.27796423	     39.75815999	     45.00000000	     45.00000000	     45.00000000	   2403.28131560	  -2098.80814850	     18.61341876	   -179.99999979	      7.07786900	    257.07837163	     18.15502171	     13.94420960	      8.50870420	    -45.00000000	    -45.00000000	     45.00000000	    -16.73344422	   -991.62543126	  -2255.41500726	    140.58111379	    156.34436406	   -350.88480848	      5.24416011	     13.90973037	    -20.30371518
      8.45000000	     40.12357508	      1.22390808	      1.91509203	    -54.81765569	    856.87611010	     -5.51003400	     -6.68288369	     39.69000603	     45.00000000	     45.00000000	     45.00000000	   2403.00926389	  -2099.41116677	     18.59740183	   -179.99999979	      7.17320055	    255.46753455	     17.81503316	     13.95608479	      8.35546256	    -45.00000000	    -45.00000000	     45.00000000	    -16.61214841	   -992.07917138	  -2255.94280263	    140.43624234	    157.21893309	   -351.08121717	      5.29930263	     14.11625408	    -20.11463480
      8.46000000	     40.18011050	      1.35707003	      1.93384289	    -51.04173507	    853.12017097	     -5.27387500	     -6.83597122	     39.73730479	     45.00000000	     45.00000000	     45.00000000	   2402.84759674	  -2099.93901486	     18.45730936	   -179.99999979	      7.26851490	    254.05775644	     17.44448297	     13.92782503	      8.25701870	    -45.00000000	    -45.00000000	     45.00000000	    -16.67083012	   -992.62439793	  -2256.40121531	    140.33946532	    157.69804059	   -351.25092027	      5.34478548	     14.23871719	    -19.92949281
      8.47000000	     40.25864191	      1.48964816	      1.95632275	    -47.33728684	    849.39755883	     -4.98448331	     -6.94907315	     39.77480438	     45.00000000	     45.00000000	     45.00000000	   2402.69415408	  -2100.41132090	     18.28928862	   -179.99999979	      7.32623848	    252.83615323	     17.11516093	     13.87101195	      8.22159764	    -45.00000000	    -45.00000000	     45.00000000	    -16.96825871	   -993.18893706	  -2256.81112182	    140.17563075	    158.52011668	   -351.38486148	      5.40117849	     14.37797899	    -19.75284433
      8.48000000	     40.31316951	      1.76533420	      2.12895874	    -43.70419173	    845.73647939	     -4.63688092	     -6.94070951	     39.84955681	     45.00000000	     45.00000000	     45.00000000	   2402.51158354	  -2100.78858319	     18.07095885	   -179.99999979	      7.46144562	    251.80464872	     16.63654997	     13.77005390	      8.22563101	    -45.00000000	    -45.00000000	     45.00000000	    -17.46794876	   -993.84322027	  -2257.11510193	    140.13113703	    159.11982270	   -351.51846494	      5.54264336	     14.40998013	    -19.57285808
      8.49000000	     40.39612887	      1.79507356	      2.10244698	    -40.15042210	    842.15847614	     -4.23309449	     -7.02084182	     40.04404551	     45.00000000	     45.00000000	     45.00000000	   2402.39557708	  -2101.27854587	     17.84708420	   -179.99999979	      7.55579459	    250.74573331	     16.32308458	     13.68897212	      8.07474657	    -45.00000000	    -45.00000000	     45.00000000	    -17.50785930	   -994.36484089	  -2257.58052847	    140.04500799	    159.54568196	   -351.65426470	      5.82962597	     14.48392388	    -19.40545162
      8.50000000	     40.36594083	      1.94033903	      2.18350108	    -36.68108406	    838.67690095	     -3.77602184	     -6.87575525	     39.88916061	     45.00000000	     44.60158398	     45.00000000	   2402.54519321	  -2101.45898292	     17.65554902	   -179.99999979	      7.62917022	    249.77538783	     15.95861262	     13.56827289	      7.97600408	    -45.00000000	    -45.00000000	     45.00000000	    -17.64169403	   -994.85625828	  -2257.90791307	    139.96010182	    159.91206981	   -351.79370344	      6.22166257	     14.45908630	    -19.24905870
      8.51000000	     40.22862142	      1.93285294	      2.11169354	    -33.31293327	    835.31065116	     -3.27126187	     -7.07083907	     39.49123031	     45.00000000	     44.06105516	     45.00000000	   2402.65187808	  -2101.73927888	     17.57904916	   -179.99999979	      7.69686843	    248.85024324	     15.59715654	     13.42468137	      7.82229471	    -45.00000000	    -45.00000000	     45.00000000	    -17.45948147	   -995.29863761	  -2258.12965824	    139.85266734	    160.38161713	   -351.87340873	      6.73633164	     14.48473286	    -19.09725397
      8.52000000	     40.08552343	      1.86590685	      2.09687627	    -30.05930485	    832.07237423	     -2.72459652	     -7.18558378	     39.11823293	     45.00000000	     43.47124561	     45.00000000	   2402.83276290	  -2102.01359151	     17.48694177	   -179.99999979	      7.79490486	    248.01240801	     15.29499165	     13.29260836	      7.67523313	    -45.00000000	    -45.00000000	     45.00000000	    -17.37097955	   -995.70400730	  -2258.38513272	    139.76179791	    160.76808515	   -352.04239005	      7.39300881	     14.47327339	    -18.94027121
      8.53000000	     39.93313559	      2.00438999	      2.25636630	    -26.93844919	    828.97870326	     -2.14316538	     -6.98718857	     38.76994223	     45.00000000	     42.88170057	     45.00000000	   2403.13887086	  -2102.01961756	     17.22506078	   -179.99999979	      7.89159066	    247.37351504	     14.92823653	     13.11441318	      7.62959670	    -45.00000000	    -45.00000000	     45.00000000	    -17.52136066	   -996.15132416	  -2258.56869193	    139.73863045	    161.06756096	   -352.15566891	      8.06483236	     14.39045963	    -18.81194224
      8.54000000	     39.78605282	      1.99783417	      2.26302210	    -23.96607610	    826.04397803	     -1.53485889	     -6.99372689	     38.44298991	     45.00000000	     42.30499432	     45.00000000	   2403.37561984	  -2102.14555495	     17.07466754	   -179.99999979	      7.95807310	    246.84911627	     14.62572591	     12.93911984	      7.51485139	    -45.00000000	    -45.00000000	     45.00000000	    -17.48000982	   -996.58435522	  -2258.78817320	    139.69474628	    161.44549181	   -352.29061911	      8.78871587	     14.34286324	    -18.67707351
      8.55000000	     39.64877804	      1.91258036	      2.20838283	    -21.16052466	    823.28595003	     -0.90932931	     -7.12373815	     38.04545041	     45.00000000	     41.75084622	     45.00000000	   2403.63623863	  -2102.29731454	     16.95847626	   -179.99999979	      8.03413516	    246.46273695	     14.34672622	     12.75850820	      7.37298433	    -45.00000000	    -45.00000000	     45.00000000	    -17.31194769	   -996.95935018	  -2259.02419276	    139.63660642	    161.62533473	   -352.43557956	      9.52345886	     14.28262166	    -18.53635583
